<?xml version="1.0" encoding="UTF-8"?>
<svg width="21px" height="22px" viewBox="0 0 21 22" version="1.1" xmlns="http://www.w3.org/2000/svg" xmlns:xlink="http://www.w3.org/1999/xlink">
    <!-- Generator: Sketch 55.2 (78181) - https://sketchapp.com -->
    <title>megaphone</title>
    <desc>Created with Sketch.</desc>
    <g id="Page-1" stroke="none" stroke-width="1" fill="none" fill-rule="evenodd">
        <g id="megaphone" fill="#0F6BFF" fill-rule="nonzero">
            <path d="M20.0001029,7 L19,7 L19,13 L20.0001029,13 C20.5522281,13 21,12.6351391 21,12.1853508 L21,7.81456537 C20.9998971,7.36469322 20.5522281,7 20.0001029,7 Z" id="Path"></path>
            <path d="M17.9984783,0.728694323 C17.9984783,0.433901127 17.8182365,0.168272365 17.5418252,0.0555881903 C17.2657182,-0.0574708482 16.947537,0.00520644371 16.7361009,0.213780877 C13.4575869,3.44750929 10.623857,4.98880088 8.8239497,5.71251368 C8.10458023,6.00175888 7.49005381,6.26288928 7,6.38104647 L7,14.6804646 C8.80576575,15.1062353 12.3528545,16.4631687 16.7362531,20.7863274 C16.8776162,20.9259268 17.0669881,21 17.2594032,21 C17.2634357,21 17.2674681,21 17.2715005,21 C17.6748191,20.9943021 18,20.6702695 18,20.271414 C18,20.2558946 17.9995435,20.2403752 17.9985544,20.2250058 L17.9984783,0.728694323 Z" id="Path"></path>
            <path d="M5.99993147,6 L0.702056946,6 C0.314332378,6 0,6.4148818 0,6.87504856 L0,15 L6,15 L6,6 L5.99993147,6 Z" id="Path"></path>
            <path d="M6.63615662,16 L1,16 L3.53841594,21.5883248 C3.65163591,21.8374984 3.91842553,22 4.21419766,22 L8.26700605,22 C8.26760828,21.9999314 8.2679094,21.9999314 8.26843636,22 C8.67246003,22 9,21.7014171 9,21.3331808 C9,21.2274999 8.97312531,21.1277207 8.92509716,21.0389212 L6.63615662,16 Z" id="Path"></path>
        </g>
    </g>
</svg>