<?xml version="1.0" encoding="UTF-8"?>
<svg width="22px" height="22px" viewBox="0 0 22 22" version="1.1" xmlns="http://www.w3.org/2000/svg" xmlns:xlink="http://www.w3.org/1999/xlink">
    <!-- Generator: Sketch 55.2 (78181) - https://sketchapp.com -->
    <title>election-event-on-a-calendar-with-star-symbol</title>
    <desc>Created with Sketch.</desc>
    <g id="Page-1" stroke="none" stroke-width="1" fill="none" fill-rule="evenodd">
        <g id="election-event-on-a-calendar-with-star-symbol" fill="#0F6BFF" fill-rule="nonzero">
            <path d="M8.59344727,14.1603301 L8.27167708,16.1519688 C8.22782224,16.4242564 8.33502296,16.6986451 8.54892033,16.8611421 C8.76315375,17.0232889 9.04762212,17.0450019 9.28168263,16.9171756 L10.9999187,15.9824677 L12.7181547,16.9173507 C12.8198106,16.9723335 12.9312119,17 13.0414371,17 C13.1857716,17 13.3297701,16.9528969 13.4512531,16.8613172 C13.6653185,16.6988202 13.7728552,16.4244315 13.7286643,16.1521439 L13.4072302,14.1605052 L14.790758,12.746186 C14.9799555,12.5530457 15.047334,12.2648237 14.9661774,12.0025171 C14.8846847,11.7403857 14.6665866,11.5484711 14.4048018,11.5081971 L12.4876227,11.2119202 L11.624136,9.4032657 C11.5070218,9.15636833 11.2643919,9 10.9997506,9 C10.7356134,9 10.4931516,9.15636833 10.3750292,9.4032657 L9.51238262,11.2119202 L7.59520355,11.508022 C7.33291464,11.548296 7.11582477,11.7402106 7.03416404,12.002342 C6.9525033,12.2646486 7.01971378,12.5532208 7.20924735,12.7460109 L8.59344727,14.1603301 Z" id="Path"></path>
            <path d="M19.7804999,2.33882417 L17.4410269,2.33882417 L17.4410269,1.06145144 C17.4410269,0.475203102 16.9582699,0 16.3625235,0 L16.1915172,0 C15.5959499,0 15.113372,0.475203102 15.113372,1.06145144 L15.113372,2.33882417 L6.8590521,2.33882417 L6.8590521,1.06145144 C6.8590521,0.475203102 6.37629516,0 5.78090688,0 L5.60972156,0 C5.01415421,0 4.53157633,0.475203102 4.53157633,1.06145144 L4.53157633,2.33882417 L2.21932102,2.33882417 C0.995775714,2.33882417 0,3.31866618 0,4.52341885 L0,19.8154053 C0,21.0194529 0.995775714,22 2.21932102,22 L19.780679,22 C21.0040452,22 22,21.0196292 22,19.8154053 L22,4.52341885 C22,3.31866618 21.0038662,2.33882417 19.7804999,2.33882417 Z M19.4909532,19.5303892 L2.50886774,19.5303892 L2.50886774,7.62651626 L19.4909532,7.62651626 L19.4909532,19.5303892 Z" id="Shape"></path>
        </g>
    </g>
</svg>