<?xml version="1.0" encoding="UTF-8"?>
<svg width="20px" height="20px" viewBox="0 0 20 20" version="1.1" xmlns="http://www.w3.org/2000/svg" xmlns:xlink="http://www.w3.org/1999/xlink">
    <!-- Generator: Sketch 55.2 (78181) - https://sketchapp.com -->
    <title>newspaper</title>
    <desc>Created with Sketch.</desc>
    <g id="Page-1" stroke="none" stroke-width="1" fill="none" fill-rule="evenodd">
        <g id="newspaper" fill="#0F6BFF" fill-rule="nonzero">
            <path d="M19.2857008,5.00001046 L15.7142887,5.00001046 L15.7142887,0.714299167 C15.7142887,0.319796094 15.3944926,0 14.9999895,0 L0.714299167,0 C0.319796094,0 0,0.319796094 0,0.714299167 L0,17.1428452 C0,18.7208156 1.27918438,20 2.85715482,20 L17.1428452,20 C18.7208156,20 20,18.7208156 20,17.1428452 L20,5.71426778 C20,5.31980656 19.6802039,5.00001046 19.2857008,5.00001046 Z M5.71426778,3.57141213 L9.99997907,3.57141213 C10.3944821,3.57141213 10.7142782,3.89120822 10.7142782,4.2857113 C10.7142782,4.68021437 10.3944821,5.00001046 9.99997907,5.00001046 L5.71426778,5.00001046 C5.3197647,5.00001046 4.99996861,4.68021437 4.99996861,4.2857113 C4.99996861,3.89120822 5.31980656,3.57141213 5.71426778,3.57141213 Z M12.1428347,17.1428452 L3.57141213,17.1428452 C3.17690906,17.1428452 2.85711296,16.8230491 2.85711296,16.428546 C2.85711296,16.0340429 3.17690906,15.7142469 3.57141213,15.7142469 L12.1428347,15.7142469 C12.5373378,15.7142469 12.8571339,16.0340429 12.8571339,16.428546 C12.8571339,16.8230491 12.5373378,17.1428452 12.1428347,17.1428452 Z M12.1428347,14.2856904 L3.57141213,14.2856904 C3.17690906,14.2856904 2.85711296,13.9658943 2.85711296,13.5713912 C2.85711296,13.1768881 3.17690906,12.857092 3.57141213,12.857092 L12.1428347,12.857092 C12.5373378,12.857092 12.8571339,13.1768881 12.8571339,13.5713912 C12.8571339,13.9658943 12.5373378,14.2856904 12.1428347,14.2856904 Z M12.1428347,11.4285774 L3.57141213,11.4285774 C3.17690906,11.4285774 2.85711296,11.1087813 2.85711296,10.7142782 C2.85711296,10.3197752 3.17690906,9.99997907 3.57141213,9.99997907 L12.1428347,9.99997907 C12.5373378,9.99997907 12.8571339,10.3197752 12.8571339,10.7142782 C12.8571339,11.1087813 12.5373378,11.4285774 12.1428347,11.4285774 Z M12.1428347,8.57142259 L3.57141213,8.57142259 C3.17690906,8.57142259 2.85711296,8.2516265 2.85711296,7.85712343 C2.85711296,7.46262035 3.17690906,7.14282426 3.57141213,7.14282426 L12.1428347,7.14282426 C12.5373378,7.14282426 12.8571339,7.46262035 12.8571339,7.85712343 C12.8571339,8.2516265 12.5373378,8.57142259 12.1428347,8.57142259 Z M18.5714017,17.1428452 C18.5714017,17.9318095 17.9318095,18.5714017 17.1428452,18.5714017 C16.3538809,18.5714017 15.7142887,17.9318095 15.7142887,17.1428452 L15.7142887,6.42856694 L18.5714435,6.42856694 L18.5714435,17.1428452 L18.5714017,17.1428452 Z" id="Shape"></path>
        </g>
    </g>
</svg>